<svg width="33" height="15" viewBox="0 0 33 15" fill="none" xmlns="http://www.w3.org/2000/svg">
<path d="M28.3246 3.53125L26.3871 2.03125C26.1371 1.78125 25.5746 1.65625 25.1996 1.65625H22.8246C22.0746 1.65625 21.2621 2.21875 21.0746 2.96875L19.5746 7.53125C19.2621 8.40625 19.8246 9.15625 20.7621 9.15625H23.2621C23.6371 9.15625 23.9496 9.46875 23.8871 9.90625L23.5746 11.9062C23.4496 12.4687 23.8246 13.0938 24.3871 13.2813C24.8871 13.4688 25.5121 13.2187 25.7621 12.8437L28.3246 9.03125" stroke="#F1F1F1" stroke-opacity="0.81" stroke-width="1.5" stroke-miterlimit="10"/>
<path d="M31.5122 3.53125V9.65625C31.5122 10.5312 31.1372 10.8438 30.2622 10.8438H29.6372C28.7622 10.8438 28.3872 10.5312 28.3872 9.65625V3.53125C28.3872 2.65625 28.7622 2.34375 29.6372 2.34375H30.2622C31.1372 2.34375 31.5122 2.65625 31.5122 3.53125Z" stroke="#F1F1F1" stroke-opacity="0.81" stroke-width="1.5" stroke-linecap="round" stroke-linejoin="round"/>
<path d="M4.67541 11.4688L6.61291 12.9688C6.86291 13.2188 7.42541 13.3438 7.80041 13.3438H10.1754C10.9254 13.3438 11.7379 12.7813 11.9254 12.0313L13.4254 7.46875C13.7379 6.59375 13.1754 5.84375 12.2379 5.84375L9.73791 5.84375C9.36291 5.84375 9.05041 5.53125 9.11291 5.09375L9.42541 3.09375C9.55041 2.53125 9.17541 1.90625 8.61291 1.71875C8.11291 1.53125 7.48791 1.78125 7.23791 2.15625L4.67541 5.96875" stroke="#F1F1F1" stroke-opacity="0.81" stroke-width="1.5" stroke-miterlimit="10"/>
<path d="M1.4873 11.4687L1.4873 5.34375C1.4873 4.46875 1.8623 4.15625 2.7373 4.15625H3.3623C4.2373 4.15625 4.6123 4.46875 4.6123 5.34375L4.6123 11.4687C4.6123 12.3437 4.2373 12.6562 3.3623 12.6562H2.7373C1.8623 12.6562 1.4873 12.3437 1.4873 11.4687Z" stroke="#F1F1F1" stroke-opacity="0.81" stroke-width="1.5" stroke-linecap="round" stroke-linejoin="round"/>
</svg>
