<svg width="20" height="20" viewBox="0 0 20 20" fill="none" xmlns="http://www.w3.org/2000/svg">
<path d="M3.13337 13.9832L3.13337 6.0082C3.13337 4.37487 4.90837 3.34987 6.32503 4.16654L9.78337 6.1582L13.2417 8.1582C14.6584 8.97487 14.6584 11.0165 13.2417 11.8332L9.78337 13.8332L6.32503 15.8249C4.90837 16.6415 3.13337 15.6249 3.13337 13.9832Z" fill="#FF274B" fill-opacity="0.6"/>
<path d="M16.8667 4.2249C17.2084 4.2249 17.4917 4.50824 17.4917 4.8499V15.1499C17.4917 15.4916 17.2084 15.7749 16.8667 15.7749C16.525 15.7749 16.2417 15.4916 16.2417 15.1499V4.8499C16.2417 4.50824 16.525 4.2249 16.8667 4.2249Z" fill="#FF274B" fill-opacity="0.6"/>
</svg>
