<svg width="30" height="30" viewBox="0 0 30 30" fill="none" xmlns="http://www.w3.org/2000/svg">
<rect width="30" height="30" rx="15" fill="#F1F1F1"/>
<path d="M19.5244 13.3498L11.35 18.2791C10.8687 18.5679 10.25 18.2241 10.25 17.6604V12.1604C10.25 9.76101 12.8419 8.26226 14.925 9.45851L18.0806 11.2735L19.5175 12.0985C19.9919 12.3804 19.9987 13.0679 19.5244 13.3498Z" fill="#171717"/>
<path d="M19.9368 17.3789L17.1524 18.9877L14.3749 20.5896C13.3781 21.1602 12.2506 21.0433 11.4324 20.4658C11.0337 20.1908 11.0818 19.5789 11.5012 19.3314L20.2393 14.0927C20.6518 13.8452 21.1949 14.0789 21.2706 14.5533C21.4424 15.6189 21.0024 16.7671 19.9368 17.3789Z" fill="#171717"/>
</svg>
