<svg width="22" height="27" viewBox="0 0 22 27" fill="none" xmlns="http://www.w3.org/2000/svg">
<path fill-rule="evenodd" clip-rule="evenodd" d="M1.10092 1.1691C0.515137 1.75489 0.515137 2.6977 0.515137 4.58332V20.4166C0.515137 23.2451 0.515137 24.6593 1.39382 25.538C2.14538 26.2895 3.28875 26.3983 5.37377 26.414V22.5416C5.37377 21.9894 5.82148 21.5416 6.37377 21.5416C6.92605 21.5416 7.37377 21.9894 7.37377 22.5416V26.4166L14.7476 26.4166V22.5416C14.7476 21.9894 15.1953 21.5416 15.7476 21.5416C16.2999 21.5416 16.7476 21.9894 16.7476 22.5416V26.414C18.8326 26.3983 19.976 26.2895 20.7275 25.538C21.6062 24.6593 21.6062 23.2451 21.6062 20.4166V4.58331C21.6062 2.6977 21.6062 1.75489 21.0204 1.1691C20.4346 0.583313 19.4918 0.583313 17.6062 0.583313H4.51514C2.62952 0.583313 1.68671 0.583313 1.10092 1.1691ZM6.37377 8.62498C5.82148 8.62498 5.37377 9.07269 5.37377 9.62498C5.37377 10.1773 5.82148 10.625 6.37377 10.625H15.7476C16.2999 10.625 16.7476 10.1773 16.7476 9.62498C16.7476 9.07269 16.2999 8.62498 15.7476 8.62498H6.37377ZM6.37377 15.7916L15.7476 15.7916C16.2999 15.7916 16.7476 15.3439 16.7476 14.7916C16.7476 14.2394 16.2999 13.7916 15.7476 13.7916L6.37377 13.7916C5.82148 13.7916 5.37377 14.2394 5.37377 14.7916C5.37377 15.3439 5.82148 15.7916 6.37377 15.7916Z" fill="#B3B3B3"/>
</svg>
