<svg width="18" height="18" viewBox="0 0 18 18" fill="none" xmlns="http://www.w3.org/2000/svg">
<path d="M15.4001 6.46875H8.2001C7.31644 6.46875 6.6001 7.1406 6.6001 7.96937V14.7222C6.6001 15.5509 7.31644 16.2228 8.2001 16.2228H15.4001C16.2838 16.2228 17.0001 15.5509 17.0001 14.7222V7.96937C17.0001 7.1406 16.2838 6.46875 15.4001 6.46875Z" stroke="#222222" stroke-width="2" stroke-linecap="round" stroke-linejoin="round"/>
<path d="M3.4 10.9708H2.6C2.17565 10.9708 1.76869 10.8127 1.46863 10.5313C1.16857 10.2499 1 9.8682 1 9.47021V2.71742C1 2.31943 1.16857 1.93774 1.46863 1.65632C1.76869 1.3749 2.17565 1.2168 2.6 1.2168H9.8C10.2243 1.2168 10.6313 1.3749 10.9314 1.65632C11.2314 1.93774 11.4 2.31943 11.4 2.71742V3.46773" stroke="#222222" stroke-width="2" stroke-linecap="round" stroke-linejoin="round"/>
</svg>
