<svg width="31" height="31" viewBox="0 0 31 31" fill="none" xmlns="http://www.w3.org/2000/svg">
<path d="M1.48665 15.7933C0.0669187 12.8839 -0.828725 8.95968 1.13206 6.48241C3.06028 4.04272 6.65733 4.55005 9.13803 6.24437C11.5976 7.9199 13.4799 10.4598 15.3137 12.9527C16.0396 10.1466 17.0249 7.42821 18.2487 4.84759C19.0834 3.09064 20.1176 1.30862 21.7257 0.472424C24.494 -0.968216 27.872 1.08 29.4826 3.99573C30.4192 5.69004 30.9474 7.66936 30.9961 9.66433C31.0933 13.6355 29.3432 17.3652 27.3526 20.6492C25.6033 23.5346 23.63 26.248 21.4616 28.7475C20.7302 29.5906 19.9456 30.4318 18.9639 30.8417C16.4454 31.8921 11.2391 27.4321 9.24323 25.7632C6.06896 23.1089 3.39177 19.6971 1.48665 15.7933Z" fill="#FFD432"/>
</svg>
