<svg width="15" height="15" viewBox="0 0 15 15" fill="none" xmlns="http://www.w3.org/2000/svg">
<path d="M0.719344 7.64193C0.03238 6.23412 -0.400996 4.33533 0.547772 3.13665C1.48078 1.95615 3.22129 2.20164 4.42163 3.02147C5.61173 3.83221 6.52251 5.0612 7.40987 6.26746C7.7611 4.90966 8.23784 3.5943 8.83 2.34561C9.23388 1.49547 9.73432 0.633204 10.5125 0.228593C11.8519 -0.468491 13.4864 0.52258 14.2658 1.93342C14.719 2.75325 14.9746 3.71098 14.9981 4.67629C15.0451 6.59781 14.1983 8.4025 13.2351 9.99155C12.3887 11.3877 11.4339 12.7006 10.3847 13.9101C10.0307 14.318 9.65109 14.7251 9.1761 14.9234C7.95745 15.4317 5.43827 13.2736 4.47253 12.466C2.93659 11.1817 1.64118 9.53087 0.719344 7.64193Z" fill="#878787" fill-opacity="0.93"/>
</svg>
