<svg width="64" height="61" viewBox="0 0 64 61" fill="none" xmlns="http://www.w3.org/2000/svg">
<ellipse cx="32" cy="30.9314" rx="32" ry="30.0124" fill="#222222" fill-opacity="0.06"/>
<path d="M38.9419 23.1237C37.6279 22.3792 36.2407 21.8511 34.8158 21.5527C34.6208 21.9841 34.4443 22.4279 34.2872 22.8823C32.7694 22.5992 31.2258 22.5992 29.708 22.8823C29.5508 22.4279 29.3744 21.9841 29.1795 21.5527C27.7536 21.8536 26.3655 22.383 25.0502 23.1276C22.4389 27.9085 21.731 32.5707 22.0849 37.1667C23.6142 38.5649 25.3258 39.6282 27.1455 40.3105C27.5552 39.6286 27.9178 38.9051 28.2293 38.1478C27.6376 37.8743 27.0665 37.5369 26.5225 37.1394C26.6657 37.011 26.8057 36.8786 26.941 36.7501C28.5236 37.6711 30.251 38.1487 32 38.1487C33.7489 38.1487 35.4763 37.6711 37.0589 36.7501C37.1958 36.8883 37.3358 37.0207 37.4774 37.1394C36.9324 37.5375 36.3602 37.8756 35.7675 38.1497C36.0786 38.9067 36.4412 39.6295 36.8513 40.3105C38.6725 39.631 40.3855 38.5681 41.915 37.1686C42.3303 31.8387 41.2055 27.2194 38.9419 23.1237ZM28.6776 34.3402C27.6913 34.3402 26.8765 33.2325 26.8765 31.8699C26.8765 30.5073 27.663 29.3899 28.6745 29.3899C29.686 29.3899 30.4945 30.5073 30.4772 31.8699C30.4599 33.2325 29.6828 34.3402 28.6776 34.3402ZM35.3223 34.3402C34.3344 34.3402 33.5227 33.2325 33.5227 31.8699C33.5227 30.5073 34.3092 29.3899 35.3223 29.3899C36.3353 29.3899 37.1376 30.5073 37.1203 31.8699C37.103 33.2325 36.3275 34.3402 35.3223 34.3402Z" fill="#222222"/>
</svg>
