<svg width="45" height="45" viewBox="0 0 45 45" fill="none" xmlns="http://www.w3.org/2000/svg">
<rect x="1.125" y="1.125" width="42.75" height="42.75" rx="21.375" stroke="white" stroke-width="2.25"/>
<path d="M27.0124 18.1932C26.1583 17.7955 25.2566 17.5134 24.3304 17.354C24.2036 17.5844 24.089 17.8215 23.9868 18.0643C23.0002 17.9131 21.9969 17.9131 21.0103 18.0643C20.9081 17.8216 20.7935 17.5845 20.6668 17.354C19.74 17.5147 18.8377 17.7975 17.9827 18.1953C16.2854 20.7494 15.8253 23.24 16.0553 25.6953C17.0493 26.4423 18.1619 27.0103 19.3447 27.3748C19.611 27.0105 19.8467 26.624 20.0492 26.2195C19.6646 26.0734 19.2933 25.8931 18.9398 25.6808C19.0328 25.6121 19.1238 25.5414 19.2118 25.4728C20.2405 25.9648 21.3633 26.2199 22.5001 26.2199C23.6369 26.2199 24.7597 25.9648 25.7885 25.4728C25.8774 25.5466 25.9684 25.6173 26.0604 25.6808C25.7062 25.8934 25.3343 26.0741 24.949 26.2205C25.1512 26.6249 25.3869 27.0111 25.6535 27.3748C26.8373 27.0118 27.9507 26.444 28.9449 25.6964C29.2148 22.849 28.4838 20.3813 27.0124 18.1932ZM20.3406 24.1854C19.6995 24.1854 19.1698 23.5936 19.1698 22.8657C19.1698 22.1377 19.6811 21.5408 20.3386 21.5408C20.996 21.5408 21.5216 22.1377 21.5103 22.8657C21.4991 23.5936 20.994 24.1854 20.3406 24.1854ZM24.6596 24.1854C24.0175 24.1854 23.4899 23.5936 23.4899 22.8657C23.4899 22.1377 24.0011 21.5408 24.6596 21.5408C25.3181 21.5408 25.8396 22.1377 25.8283 22.8657C25.8171 23.5936 25.313 24.1854 24.6596 24.1854Z" fill="white"/>
</svg>
