<svg width="33" height="27" viewBox="0 0 33 27" fill="none" xmlns="http://www.w3.org/2000/svg">
<g clip-path="url(#clip0_32_870)">
<path d="M32.3737 13.5C32.3737 6.04422 25.2668 0 16.5001 0C7.7334 0 0.626465 6.04422 0.626465 13.5C0.626465 19.831 5.75174 25.1435 12.6657 26.6026V17.6256H9.39252V13.5H12.6657V11.7223C12.6657 7.12746 15.1108 4.9977 20.4152 4.9977C21.4209 4.9977 23.1562 5.16564 23.8661 5.33304V9.07254C23.4915 9.03906 22.8407 9.02232 22.0324 9.02232C19.4297 9.02232 18.424 9.86094 18.424 12.0409V13.5H23.6089L22.7181 17.6256H18.424V26.9012C26.284 26.0939 32.3744 20.4023 32.3744 13.5H32.3737Z" fill="#0866FF"/>
<path d="M22.7174 17.6256L23.6083 13.5H18.4233V12.0409C18.4233 9.86092 19.4291 9.0223 22.0317 9.0223C22.84 9.0223 23.4908 9.03904 23.8654 9.07252V5.33302C23.1556 5.16508 21.4202 4.99768 20.4145 4.99768C15.1102 4.99768 12.665 7.12744 12.665 11.7223V13.5H9.39185V17.6256H12.665V26.6025C13.893 26.8617 15.1775 27 16.4994 27C17.1502 27 17.7922 26.966 18.4227 26.9012V17.6256H22.7168H22.7174Z" fill="white"/>
</g>
<defs>
<clipPath id="clip0_32_870">
<rect width="31.7473" height="27" fill="white" transform="translate(0.626465)"/>
</clipPath>
</defs>
</svg>
