<svg width="32" height="26" viewBox="0 0 32 26" fill="none" xmlns="http://www.w3.org/2000/svg">
<g clip-path="url(#clip0_32_905)">
<path d="M16.8521 11.4045V16.1874H24.6672C24.324 17.7255 23.2942 19.0279 21.7497 19.9036L26.4625 23.0136C29.2084 20.858 30.7925 17.6919 30.7925 13.9308C30.7925 13.0551 30.7002 12.213 30.5285 11.4047L16.8521 11.4045Z" fill="#4285F4"/>
<path d="M8.71378 16.0007L7.65086 16.6927L3.88843 19.1851C6.27786 23.2157 11.1752 26.0001 16.8517 26.0001C20.7724 26.0001 24.0595 24.8998 26.4621 23.0137L21.7493 19.9037C20.4556 20.6447 18.8054 21.0938 16.8517 21.0938C13.0761 21.0938 9.86832 18.927 8.71972 16.0079L8.71378 16.0007Z" fill="#34A853"/>
<path d="M3.88845 8.11499C2.89841 9.77656 2.33081 11.6515 2.33081 13.65C2.33081 15.6484 2.89841 17.5234 3.88845 19.1849C3.88845 19.1961 8.72021 15.9964 8.72021 15.9964C8.42978 15.2554 8.25812 14.4695 8.25812 13.6498C8.25812 12.8301 8.42978 12.0443 8.72021 11.3033L3.88845 8.11499Z" fill="#FBBC05"/>
<path d="M16.852 6.21759C18.9906 6.21759 20.8916 6.8463 22.4097 8.05886L26.5681 4.52232C24.0466 2.5239 20.7728 1.30005 16.852 1.30005C11.1755 1.30005 6.27786 4.07318 3.88843 8.11501L8.72004 11.3036C9.86848 8.38444 13.0764 6.21759 16.852 6.21759Z" fill="#EA4335"/>
</g>
<defs>
<clipPath id="clip0_32_905">
<rect width="29.0429" height="24.7" fill="white" transform="translate(2.33081 1.30005)"/>
</clipPath>
</defs>
</svg>
