<svg width="33" height="27" viewBox="0 0 33 27" fill="none" xmlns="http://www.w3.org/2000/svg">
<rect x="0.626465" width="31.7473" height="27" rx="13.5" fill="url(#paint0_radial_32_886)"/>
<path d="M16.5 7.96988C18.6038 7.96988 18.8907 7.96988 19.7513 7.96988C20.5163 7.96988 20.8988 8.13253 21.1856 8.21386C21.5681 8.37651 21.855 8.45783 22.1419 8.70181C22.4288 8.94578 22.62 9.18976 22.7156 9.51506C22.8112 9.75904 22.9069 10.0843 23.0025 10.7349C23.0025 11.4669 23.0025 11.6295 23.0025 13.5C23.0025 15.3705 23.0025 15.5331 23.0025 16.2651C23.0025 16.9157 22.8112 17.241 22.7156 17.4849C22.5244 17.8102 22.4288 18.0542 22.1419 18.2982C21.855 18.5422 21.5681 18.7048 21.1856 18.7861C20.8988 18.8675 20.5163 18.9488 19.7513 19.0301C18.8907 19.0301 18.6994 19.0301 16.5 19.0301C14.3007 19.0301 14.1094 19.0301 13.2488 19.0301C12.4838 19.0301 12.1013 18.8675 11.8145 18.7861C11.432 18.6235 11.1451 18.5422 10.8582 18.2982C10.5713 18.0542 10.3801 17.8102 10.2845 17.4849C10.1888 17.241 10.0932 16.9157 9.9976 16.2651C9.9976 15.5331 9.9976 15.3705 9.9976 13.5C9.9976 11.6295 9.9976 11.4669 9.9976 10.7349C9.9976 10.0843 10.1888 9.75904 10.2845 9.51506C10.4757 9.18976 10.5713 8.94578 10.8582 8.70181C11.1451 8.45783 11.432 8.29518 11.8145 8.21386C12.1013 8.13253 12.4838 8.0512 13.2488 7.96988C14.1094 7.96988 14.3963 7.96988 16.5 7.96988ZM16.5 6.75C14.3007 6.75 14.1094 6.75 13.2488 6.75C12.3882 6.75 11.8145 6.91265 11.3363 7.0753C10.8582 7.23795 10.3801 7.48193 9.90197 7.88855C9.42385 8.29518 9.2326 8.62048 8.94573 9.10843C8.75448 9.51506 8.65886 10.003 8.56323 10.7349C8.56323 11.4669 8.56323 11.7108 8.56323 13.5C8.56323 15.3705 8.56323 15.5331 8.56323 16.2651C8.56323 16.997 8.75448 17.4849 8.94573 17.8916C9.13698 18.2982 9.42385 18.7048 9.90197 19.1114C10.3801 19.5181 10.7626 19.6807 11.3363 19.9247C11.8145 20.0874 12.3882 20.1687 13.2488 20.25C14.1094 20.25 14.3963 20.25 16.5 20.25C18.6038 20.25 18.8907 20.25 19.7513 20.25C20.6119 20.25 21.1856 20.0874 21.6638 19.9247C22.1419 19.762 22.62 19.5181 23.0981 19.1114C23.5762 18.7048 23.7675 18.3795 24.0544 17.8916C24.2456 17.4849 24.3412 16.997 24.4369 16.2651C24.4369 15.5331 24.4369 15.2892 24.4369 13.5C24.4369 11.7108 24.4369 11.4669 24.4369 10.7349C24.4369 10.003 24.2456 9.51506 24.0544 9.10843C23.8631 8.70181 23.5762 8.29518 23.0981 7.88855C22.62 7.48193 22.2375 7.31928 21.6638 7.0753C21.1856 6.91265 20.6119 6.83133 19.7513 6.75C18.8907 6.75 18.6994 6.75 16.5 6.75Z" fill="white"/>
<path d="M16.5 10.003C14.2051 10.003 12.3882 11.5482 12.3882 13.5C12.3882 15.4518 14.2051 16.997 16.5 16.997C18.795 16.997 20.6119 15.4518 20.6119 13.5C20.6119 11.5482 18.795 10.003 16.5 10.003ZM16.5 15.7771C15.0657 15.7771 13.8226 14.8012 13.8226 13.5C13.8226 12.2801 14.9701 11.2229 16.5 11.2229C17.9344 11.2229 19.1775 12.1988 19.1775 13.5C19.1775 14.7199 17.9344 15.7771 16.5 15.7771Z" fill="white"/>
<path d="M20.7075 10.7349C21.2356 10.7349 21.6638 10.3708 21.6638 9.92169C21.6638 9.47254 21.2356 9.10843 20.7075 9.10843C20.1794 9.10843 19.7513 9.47254 19.7513 9.92169C19.7513 10.3708 20.1794 10.7349 20.7075 10.7349Z" fill="white"/>
<defs>
<radialGradient id="paint0_radial_32_886" cx="0" cy="0" r="1" gradientUnits="userSpaceOnUse" gradientTransform="translate(33.0124 0.548438) scale(73.3138 62.351)">
<stop stop-color="#F9ED32"/>
<stop offset="0.36" stop-color="#EE2A7B"/>
<stop offset="0.44" stop-color="#D22A8A"/>
<stop offset="0.6" stop-color="#8B2AB2"/>
<stop offset="0.83" stop-color="#1B2AF0"/>
<stop offset="0.88" stop-color="#002AFF"/>
</radialGradient>
</defs>
</svg>
