<svg width="64" height="61" viewBox="0 0 64 61" fill="none" xmlns="http://www.w3.org/2000/svg">
<ellipse cx="32" cy="30.9314" rx="32" ry="30.0124" fill="#222222" fill-opacity="0.06"/>
<path d="M32.0008 20.6143C29.0134 20.6143 28.6384 20.6265 27.4651 20.6766C26.294 20.7269 25.4947 20.9008 24.7953 21.1559C24.0718 21.4194 23.4581 21.7719 22.8466 22.3455C22.2348 22.919 21.8589 23.4946 21.577 24.1729C21.3043 24.8291 21.1187 25.579 21.066 26.6769C21.0138 27.7773 21 28.1292 21 30.931C21 33.7329 21.0133 34.0834 21.0665 35.1839C21.1203 36.2822 21.3057 37.0319 21.5775 37.6879C21.8587 38.3664 22.2345 38.942 22.8462 39.5154C23.4574 40.0893 24.0711 40.4427 24.7941 40.7062C25.494 40.9613 26.2936 41.1352 27.4644 41.1855C28.6377 41.2355 29.0124 41.2478 31.9997 41.2478C34.9873 41.2478 35.3611 41.2355 36.5345 41.1855C37.7055 41.1352 38.5058 40.9613 39.2056 40.7062C39.9289 40.4427 40.5417 40.0893 41.1529 39.5154C41.7648 38.942 42.1406 38.3664 42.4225 37.6881C42.6929 37.0319 42.8785 36.282 42.9335 35.1841C42.9863 34.0837 43 33.7329 43 30.931C43 28.1292 42.9863 27.7775 42.9335 26.6771C42.8785 25.5788 42.6929 24.8291 42.4225 24.1731C42.1406 23.4946 41.7648 22.919 41.1529 22.3455C40.541 21.7717 39.9291 21.4192 39.205 21.1559C38.5037 20.9008 37.7039 20.7269 36.5329 20.6766C35.3595 20.6265 34.986 20.6143 31.9976 20.6143H32.0008ZM31.014 22.4734C31.3069 22.473 31.6337 22.4734 32.0008 22.4734C34.9378 22.4734 35.2859 22.4833 36.4458 22.5327C37.5183 22.5787 38.1004 22.7468 38.4881 22.888C39.0015 23.075 39.3674 23.2986 39.7522 23.6596C40.1372 24.0207 40.3756 24.3646 40.5754 24.8461C40.726 25.2093 40.9054 25.7552 40.9542 26.7611C41.0069 27.8487 41.0184 28.1754 41.0184 30.9287C41.0184 33.682 41.0069 34.0087 40.9542 35.0962C40.9052 36.1021 40.726 36.648 40.5754 37.0113C40.376 37.4927 40.1372 37.8355 39.7522 38.1964C39.3672 38.5575 39.0017 38.781 38.4881 38.968C38.1008 39.1099 37.5183 39.2775 36.4458 39.3235C35.2862 39.3729 34.9378 39.3837 32.0008 39.3837C29.0635 39.3837 28.7154 39.3729 27.5558 39.3235C26.4833 39.2771 25.9012 39.109 25.5133 38.9678C24.9999 38.7808 24.6332 38.5573 24.2482 38.1962C23.8632 37.8351 23.6249 37.4921 23.4251 37.0104C23.2745 36.6472 23.0951 36.1012 23.0463 35.0954C22.9935 34.0078 22.983 33.6811 22.983 30.9261C22.983 28.1711 22.9935 27.8461 23.0463 26.7585C23.0953 25.7527 23.2745 25.2067 23.4251 24.8431C23.6244 24.3616 23.8632 24.0177 24.2482 23.6566C24.6332 23.2955 24.9999 23.072 25.5133 22.8846C25.901 22.7427 26.4833 22.5751 27.5558 22.5289C28.5706 22.4859 28.9639 22.473 31.014 22.4708V22.4734Z" fill="#222222"/>
<path d="M37.8489 24.1611C37.5878 24.1611 37.3326 24.2337 37.1155 24.3698C36.8984 24.5058 36.7292 24.6992 36.6293 24.9254C36.5294 25.1517 36.5033 25.4006 36.5543 25.6408C36.6053 25.881 36.731 26.1015 36.9157 26.2747C37.1003 26.4478 37.3356 26.5657 37.5917 26.6134C37.8478 26.6611 38.1132 26.6365 38.3544 26.5428C38.5956 26.449 38.8017 26.2902 38.9467 26.0866C39.0917 25.883 39.169 25.6436 39.1689 25.3987C39.1689 24.7152 38.5777 24.1611 37.8489 24.1611Z" fill="#222222"/>
<path fill-rule="evenodd" clip-rule="evenodd" d="M31.9771 25.6076C28.8575 25.6076 26.3281 27.9798 26.3281 30.9057C26.3281 33.8316 28.8575 36.2027 31.9771 36.2027C35.0968 36.2027 37.6255 33.8316 37.6255 30.9057C37.6255 27.9798 35.0968 25.6076 31.9771 25.6076ZM32 34.3162C33.9934 34.3162 35.6094 32.8006 35.6094 30.931C35.6094 29.0615 33.9934 27.5459 32 27.5459C30.0066 27.5459 28.3906 29.0615 28.3906 30.931C28.3906 32.8006 30.0066 34.3162 32 34.3162Z" fill="#222222"/>
</svg>
