<svg width="45" height="45" viewBox="0 0 45 45" fill="none" xmlns="http://www.w3.org/2000/svg">
<path d="M22.5005 16C20.7352 16 20.5136 16.0077 19.8203 16.0393C19.1283 16.071 18.656 16.1805 18.2427 16.3413C17.8151 16.5073 17.4525 16.7294 17.0912 17.0908C16.7296 17.4521 16.5075 17.8147 16.341 18.2421C16.1798 18.6555 16.0701 19.128 16.039 19.8197C16.0081 20.513 16 20.7347 16 22.5C16 24.2653 16.0079 24.4862 16.0393 25.1795C16.0711 25.8715 16.1806 26.3438 16.3413 26.7571C16.5074 27.1846 16.7295 27.5473 17.0909 27.9085C17.4521 28.2701 17.8147 28.4927 18.242 28.6588C18.6555 28.8195 19.128 28.929 19.8199 28.9607C20.5132 28.9923 20.7346 29 22.4998 29C24.2652 29 24.4861 28.9923 25.1795 28.9607C25.8714 28.929 26.3443 28.8195 26.7579 28.6588C27.1853 28.4927 27.5474 28.2701 27.9085 27.9085C28.2701 27.5473 28.4922 27.1846 28.6587 26.7572C28.8185 26.3438 28.9282 25.8713 28.9607 25.1796C28.9919 24.4863 29 24.2653 29 22.5C29 20.7347 28.9919 20.5132 28.9607 19.8198C28.9282 19.1279 28.8185 18.6555 28.6587 18.2422C28.4922 17.8147 28.2701 17.4521 27.9085 17.0908C27.547 16.7292 27.1854 16.5071 26.7575 16.3413C26.3431 16.1805 25.8705 16.071 25.1785 16.0393C24.4852 16.0077 24.2644 16 22.4986 16H22.5005ZM21.9174 17.1714C22.0904 17.1711 22.2835 17.1714 22.5005 17.1714C24.236 17.1714 24.4417 17.1776 25.127 17.2087C25.7608 17.2377 26.1048 17.3436 26.3339 17.4326C26.6372 17.5504 26.8535 17.6912 27.0809 17.9187C27.3084 18.1462 27.4492 18.3629 27.5673 18.6662C27.6562 18.8951 27.7623 19.239 27.7911 19.8728C27.8223 20.558 27.829 20.7638 27.829 22.4985C27.829 24.2332 27.8223 24.439 27.7911 25.1242C27.7621 25.758 27.6562 26.1019 27.5673 26.3308C27.4495 26.6341 27.3084 26.8501 27.0809 27.0775C26.8534 27.305 26.6374 27.4458 26.3339 27.5636C26.105 27.653 25.7608 27.7586 25.127 27.7876C24.4418 27.8188 24.236 27.8255 22.5005 27.8255C20.7648 27.8255 20.5591 27.8188 19.8739 27.7876C19.2401 27.7584 18.8962 27.6525 18.6669 27.5635C18.3636 27.4457 18.1469 27.3049 17.9194 27.0774C17.6919 26.8499 17.5511 26.6337 17.433 26.3303C17.344 26.1014 17.238 25.7574 17.2091 25.1237C17.178 24.4385 17.1718 24.2327 17.1718 22.4969C17.1718 20.7611 17.178 20.5564 17.2091 19.8712C17.2381 19.2374 17.344 18.8934 17.433 18.6643C17.5508 18.361 17.6919 18.1443 17.9194 17.9168C18.1469 17.6893 18.3636 17.5485 18.6669 17.4304C18.8961 17.341 19.2401 17.2354 19.8739 17.2063C20.4735 17.1792 20.7059 17.1711 21.9174 17.1697V17.1714Z" fill="white"/>
<path d="M25.9562 18.2347C25.8019 18.2347 25.6511 18.2804 25.5228 18.3661C25.3945 18.4519 25.2945 18.5737 25.2355 18.7162C25.1765 18.8588 25.1611 19.0156 25.1912 19.1669C25.2213 19.3182 25.2956 19.4572 25.4047 19.5663C25.5138 19.6754 25.6528 19.7496 25.8042 19.7797C25.9555 19.8098 26.1123 19.7943 26.2549 19.7352C26.3974 19.6761 26.5192 19.5761 26.6049 19.4478C26.6905 19.3195 26.7362 19.1687 26.7362 19.0144C26.7362 18.5838 26.3868 18.2347 25.9562 18.2347Z" fill="white"/>
<path fill-rule="evenodd" clip-rule="evenodd" d="M22.4865 19.146C20.643 19.146 19.1484 20.6406 19.1484 22.484C19.1484 24.3275 20.643 25.8214 22.4865 25.8214C24.3299 25.8214 25.8241 24.3275 25.8241 22.484C25.8241 20.6406 24.3299 19.146 22.4865 19.146ZM22.5 24.6328C23.6779 24.6328 24.6328 23.6779 24.6328 22.5C24.6328 21.3221 23.6779 20.3672 22.5 20.3672C21.3221 20.3672 20.3672 21.3221 20.3672 22.5C20.3672 23.6779 21.3221 24.6328 22.5 24.6328Z" fill="white"/>
<rect x="1.125" y="1.125" width="42.75" height="42.75" rx="21.375" stroke="white" stroke-width="2.25"/>
</svg>
