<svg width="11" height="10" viewBox="0 0 11 10" fill="none" xmlns="http://www.w3.org/2000/svg">
<path fill-rule="evenodd" clip-rule="evenodd" d="M4.15942 8.92188C4.15942 9.47416 4.60714 9.92188 5.15942 9.92188C5.71171 9.92188 6.15942 9.47416 6.15942 8.92188V6.33571H9.19411C9.7464 6.33571 10.1941 5.888 10.1941 5.33571C10.1941 4.78343 9.7464 4.33571 9.19411 4.33571H6.15942V1.75C6.15942 1.19772 5.71171 0.75 5.15942 0.75C4.60714 0.75 4.15942 1.19772 4.15942 1.75V4.33571H1.12476C0.572471 4.33571 0.124756 4.78343 0.124756 5.33571C0.124756 5.888 0.572471 6.33571 1.12476 6.33571H4.15942V8.92188Z" fill="#E6E6E6"/>
</svg>
