<svg width="24" height="22" viewBox="0 0 24 22" fill="none" xmlns="http://www.w3.org/2000/svg">
<path fill-rule="evenodd" clip-rule="evenodd" d="M4.93896 3.71967H18.5716C19.1239 3.71967 19.5716 4.16738 19.5716 4.71967V17.0376C19.5716 17.5899 19.1239 18.0376 18.5716 18.0376H4.93897C4.38668 18.0376 3.93896 17.5899 3.93896 17.0376V4.71967C3.93896 4.16738 4.38668 3.71967 4.93896 3.71967ZM2.93896 4.71967C2.93896 3.6151 3.8344 2.71967 4.93896 2.71967H18.5716C19.6762 2.71967 20.5716 3.6151 20.5716 4.71967V17.0376C20.5716 18.1422 19.6762 19.0376 18.5716 19.0376H4.93897C3.8344 19.0376 2.93896 18.1422 2.93896 17.0376V4.71967ZM8.1373 12.8643C7.73196 13.2394 7.70746 13.8721 8.08258 14.2775C8.4577 14.6828 9.09039 14.7073 9.49574 14.3322L13.6941 10.4469V13.5983C13.6941 14.1505 14.1418 14.5983 14.6941 14.5983C15.2464 14.5983 15.6941 14.1505 15.6941 13.5983L15.6941 8.15893C15.6941 7.60665 15.2464 7.15893 14.6941 7.15893L8.81652 7.15893C8.26424 7.15893 7.81652 7.60665 7.81652 8.15893C7.81652 8.71121 8.26424 9.15893 8.81652 9.15893L12.1412 9.15893L8.1373 12.8643Z" fill="#E0E0E0"/>
</svg>
