<svg width="24" height="24" viewBox="0 0 24 24" fill="none" xmlns="http://www.w3.org/2000/svg">
<path fill-rule="evenodd" clip-rule="evenodd" d="M8.85692 12.7428C8.95142 12.5065 8.99997 12.2544 8.99997 12V9C8.99997 7.34315 10.3431 6 12 6C13.6568 6 15 7.34315 15 9V12C15 12.2544 15.0485 12.5065 15.143 12.7428L16.0459 15H7.95403L8.85692 12.7428ZM5.54852 15.6286L6.99997 12V9C6.99997 6.23858 9.23854 4 12 4C14.7614 4 17 6.23858 17 9V12L18.4514 15.6286C18.7142 16.2855 18.2304 17 17.5229 17H6.477C5.76953 17 5.28578 16.2855 5.54852 15.6286ZM10.9999 18C10.4477 18 9.99994 18.4477 9.99994 19C9.99994 19.5523 10.4477 20 10.9999 20H12.9999C13.5522 20 13.9999 19.5523 13.9999 19C13.9999 18.4477 13.5522 18 12.9999 18H10.9999Z" fill="white"/>
</svg>
