<svg width="33" height="27" viewBox="0 0 33 27" fill="none" xmlns="http://www.w3.org/2000/svg">
<path d="M32.3736 13.5C32.3736 6.04416 26.3294 0 18.8736 0H14.1263C6.6705 0 0.626343 6.04416 0.626343 13.5V13.5C0.626343 20.9558 6.6705 27 14.1263 27H18.8736C26.3294 27 32.3736 20.9558 32.3736 13.5V13.5Z" fill="#9146FF"/>
<path d="M12.5337 7.95496L9.6991 10.3657V19.0442H13.1006V21.455L15.9352 19.0442H18.2028L23.3051 14.705V7.95496H12.5337ZM22.1712 14.2228L19.9036 16.1514H17.6359L15.6517 17.8389V16.1514H13.1006V8.91924H22.1712V14.2228Z" fill="white"/>
<path d="M20.4705 10.6067H19.3367V13.4996H20.4705V10.6067Z" fill="white"/>
<path d="M17.3525 10.6067H16.2186V13.4996H17.3525V10.6067Z" fill="white"/>
</svg>
