<svg width="25" height="23" viewBox="0 0 25 23" fill="none" xmlns="http://www.w3.org/2000/svg">
<path fill-rule="evenodd" clip-rule="evenodd" d="M15.7184 7.66667C15.7184 9.0843 14.4482 10.4583 12.5946 10.4583C10.7409 10.4583 9.47069 9.0843 9.47069 7.66667C9.47069 6.24904 10.7409 4.875 12.5946 4.875C14.4482 4.875 15.7184 6.24904 15.7184 7.66667ZM15.0764 11.8597C16.652 11.0424 17.7184 9.47101 17.7184 7.66667C17.7184 5.0203 15.4244 2.875 12.5946 2.875C9.76473 2.875 7.47069 5.0203 7.47069 7.66667C7.47069 9.47101 8.53714 11.0424 10.1127 11.8597C8.87359 12.2279 7.73399 12.8698 6.79759 13.7455C5.77536 14.7015 5.05096 15.8839 4.68024 17.1667C4.49339 17.8132 4.39639 18.4853 4.39639 19.1667H6.39639L12.5946 19.1667H18.7928H20.7928C20.7928 18.4853 20.6958 17.8132 20.5089 17.1667C20.1382 15.8839 19.4138 14.7015 18.3916 13.7455C17.4552 12.8698 16.3156 12.2278 15.0764 11.8597ZM17.0255 15.2063C17.6352 15.7764 18.0954 16.446 18.3931 17.1667H12.5946L6.79607 17.1667C7.09379 16.446 7.55398 15.7764 8.16366 15.2063C9.31734 14.1274 10.9091 13.5 12.5946 13.5C14.2801 13.5 15.8718 14.1274 17.0255 15.2063Z" fill="white"/>
</svg>
